<?xml version="1.0" encoding="utf-8"?>
<!-- Generator: Adobe Illustrator 26.3.1, SVG Export Plug-In . SVG Version: 6.00 Build 0)  -->
<svg version="1.1" id="Layer_1" xmlns="http://www.w3.org/2000/svg" xmlns:xlink="http://www.w3.org/1999/xlink" x="0px" y="0px"
	 viewBox="0 0 950.3 193.9" style="enable-background:new 0 0 950.3 193.9;" xml:space="preserve">
<style type="text/css">
	.st0{fill:#000;}
	
</style>
<g id="Layer_1_00000166650983601143978930000002281037457243739833_">
</g>
<g id="Layer_2_00000034789911581579162100000000084702800807073458_">
	<g>
		<g>
			<g>
				<g>
					<path class="st0" d="M521.4,0.1C507,0.1,141.1,0,141.1,0l27.3,18.2h343.1l13.7,13.7v130.2l-13.7,13.6H158.3L122,110.1
						c20,0,46.4-22.8,46.4-51.9s-18.2-58.3-81-58.3C24.6,0,0,0,0,0v193.9h55.5V23.7c19.1,0,57.3-2.7,57.3,32.8
						c0,31.9-11.8,39.1-51.9,39.1l47.3,98.3h412.3l22.5-22.5V21.8L521.4,0.1z"/>
					<path class="st0" d="M476.9,51.4c5,0,16.8,0,31.4,0V33.7c0,0-47.3,0-57.8,0s-32.8,1.4-32.8,36.4v53.7c0,35,22.3,36.4,32.8,36.4
						s57.8,0,57.8,0v-17.8c-14.6,0-26.4,0-31.4,0c-8.2,0-15,0.5-15-14.1c0-2.7,0-22.8,0-22.8h40V88.3h-40c0,0,0-20,0-22.8
						C461.9,51,468.8,51.4,476.9,51.4z"/>
					<path class="st0" d="M369.9,148.4c2.6,4.2,8.9,11.6,19.5,11.7c15.4,0.2,17-13,17-17c0-5.7,0-109.5,0-109.5h-20.8v64.6
						c0,0-31.5-41.4-35.2-47.3c-3.6-5.9-10-16.4-25-16.6c-21.8-0.3-24.1,18.4-24.1,24.1s0,101.7,0,101.7h20.8V80.6
						C322.1,80.6,367.3,144.3,369.9,148.4z"/>
					<path class="st0" d="M194.2,136.5h45.5l7.4,23.7h43.7c0,0-31.4-90.6-36-103.8s-8.6-20-20.5-24c-11.8-4-25,5.3-28.8,14.5
						C201.7,56,166,160.2,166,160.2h20L194.2,136.5z M218,66.9l16.5,52.9l-34.6-0.1L218,66.9z"/>
				</g>
			</g>
		</g>
		<g>
			<path class="st0" d="M621.3,171.8V22.1h65.3v22.4h-41.9V83H676v22.4h-31.3v66.3L621.3,171.8L621.3,171.8z"/>
			<path class="st0" d="M698.7,58.4c0-21.1,11.3-38.4,35.8-38.4s35.8,17.2,35.8,38.4v77.1c0,21.1-11.3,38.4-35.8,38.4
				s-35.8-17.2-35.8-38.4V58.4z M722.1,134.9c0,11.2,3,16.6,12.5,16.6s12.5-5.4,12.5-16.6V59c0-11.2-3-16.6-12.5-16.6
				s-12.5,5.4-12.5,16.6V134.9z"/>
			<path class="st0" d="M786.6,22.1H810v113c0,11,4,16.4,12.5,16.4s12.5-5.4,12.5-16.4v-113h23.4v112c0,25.7-13.6,39.8-35.8,39.8
				s-35.8-14.1-35.8-39.8v-112H786.6z"/>
			<path class="st0" d="M897.9,171.8h-23.4V22.1h32.8c26.2,0,39.6,12.2,39.6,44.2c0,24-8.5,33.8-16.4,37.7l19.8,67.8h-23.8l-16.6-62
				c-3,0.4-7.9,0.6-12.1,0.6v61.4H897.9z M897.9,89.3h8.3c12.6,0,17.4-5.2,17.4-23s-4.7-23-17.4-23h-8.3V89.3z"/>
		</g>
	</g>
</g>
</svg>
